<svg width="30" height="30" viewBox="0 0 30 30" fill="none" xmlns="http://www.w3.org/2000/svg">
<g clip-path="url(#clip0_4157_334)">
<path d="M1.24998 28.4375C1.09375 28.75 1.24998 29.0625 1.40622 29.2187C1.71874 29.3749 2.03121 29.3749 2.34374 29.3749L7.03121 27.6562C9.37494 29.2187 12.1874 29.9999 14.9999 29.9999C23.2812 29.9999 29.9999 23.2812 29.9999 14.9999C29.9999 6.71868 23.2813 0 15 0C6.71874 0 0 6.71874 0 15C0 18.125 0.93752 21.25 2.8125 23.75L1.24998 28.4375ZM1.56251 14.8438C1.56251 7.34374 7.65626 1.40628 15 1.40628C22.3437 1.40628 28.4375 7.50003 28.4375 14.8438C28.4375 22.1875 22.3437 28.2813 15 28.2813C12.3437 28.2813 9.68747 27.5 7.49997 26.0938C7.34374 25.9375 7.18744 25.9375 7.03121 25.9375C6.87498 25.9375 6.87498 25.9375 6.71868 25.9375L3.1249 27.3438L4.37488 23.7501C4.53111 23.4375 4.37488 23.2813 4.21865 22.9689C2.50003 20.625 1.56251 17.8125 1.56251 14.8438Z" fill="black"/>
<path d="M17.9692 24.0625C18.7504 24.2187 19.3755 24.375 20.1567 24.375C22.0317 24.375 23.438 23.5938 24.3755 22.1875C24.8442 21.25 25.0005 20.4688 24.8442 19.6875C24.5317 18.75 23.7505 18.2812 23.5943 18.125L21.2505 16.875C20.938 16.7188 20.6255 16.5625 20.313 16.5625C18.7505 16.5625 17.813 18.2812 17.813 18.2812C17.813 18.2812 17.6567 18.4375 17.3442 18.4375C17.188 18.4375 17.188 18.4375 17.188 18.4375C14.8442 17.6562 13.1255 15.4687 12.3442 14.375L12.188 14.2187C11.563 13.75 11.4067 13.75 12.0317 13.125C13.2817 12.0312 12.9693 10.7813 12.6567 10.3125L11.0942 6.56247C10.938 6.24995 10.313 5.78125 9.68794 5.78125C8.90672 5.78125 7.9692 6.25001 6.87545 7.34376C4.21918 10 6.25045 14.0625 6.25045 14.0625C9.21918 21.875 17.6567 23.9062 17.9692 24.0625ZM7.96914 8.43745C8.90666 7.3437 9.53165 7.3437 9.68788 7.3437L11.4066 11.0937C11.4066 11.2499 11.5629 11.5625 11.0941 12.0312C9.53158 13.4375 10.0003 14.375 10.7816 15.3125L10.9378 15.4687C11.719 16.5625 13.7503 19.2187 16.5628 20C16.5628 20 16.8753 20 17.1878 20C17.969 20 18.5941 19.6874 19.0628 19.0624C19.219 18.5937 20.0003 17.8125 20.6253 18.1249L22.969 19.2187C22.969 19.2187 23.2815 19.3749 23.4378 19.6874C23.594 20.1562 23.2815 20.625 23.1252 20.9374C22.344 22.3437 20.7815 22.6562 18.594 22.1874C18.2815 22.1874 10.6253 20.1561 7.81271 13.2812C7.65667 13.5937 6.09416 10.4687 7.96914 8.43745Z" fill="black"/>
</g>
<defs>
<clipPath id="clip0_4157_334">
<rect width="30" height="30" fill="white"/>
</clipPath>
</defs>
</svg>
