<svg width="30" height="30" viewBox="0 0 30 30" fill="none" xmlns="http://www.w3.org/2000/svg">
<g clip-path="url(#clip0_4157_329)">
<path d="M15.0327 22.0248C14.0686 22.0248 13.1783 21.9784 11.6681 21.2495C11.1141 21.0249 6.43616 18.9045 3.65823 10.3934C3.51521 9.96957 3.48609 9.28689 3.87263 8.74578C4.1237 8.39422 4.63997 7.97516 5.67316 7.97516H8.12243C8.50071 7.97516 8.83657 8.21721 8.95622 8.57609C8.96126 8.59121 9.47695 10.127 10.2492 11.6952C10.7709 12.7548 11.2215 13.456 11.5903 13.92V11.3027C11.5903 11.2537 11.5907 11.2276 11.5986 11.1811C11.6057 11.109 11.6489 10.5173 11.2193 10.0447C11.1444 9.96236 11.0859 9.8665 11.0467 9.76221C10.9378 9.4717 10.9191 9.02006 11.1937 8.62397C11.492 8.19342 12.022 7.9751 12.769 7.9751H16.0666C16.1082 7.9751 16.1497 7.97803 16.1909 7.98395C16.807 8.07195 17.4701 8.66322 17.4701 9.75336V13.2796C18.1111 12.5982 19.0326 11.353 19.8056 9.54025C19.9796 8.9515 20.6176 7.9751 21.9871 7.9751H24.3379C24.3615 7.9751 24.3852 7.97604 24.4087 7.97797C24.7505 8.00563 25.2058 8.20432 25.4584 8.67904C25.9228 9.55186 25.3066 10.6481 25.1041 11.0084C25.0917 11.0304 25.0784 11.0519 25.0641 11.0727L23.0675 14.0022C22.9051 14.2404 22.7669 14.4335 22.6326 14.6098C22.3893 14.9295 22.3413 15.2055 22.4903 15.4302C22.5025 15.4487 22.5234 15.4744 22.5523 15.5066L25.3936 18.6729C25.4607 18.7429 25.7132 19.0139 25.9476 19.355C26.1251 19.6133 26.6653 20.3994 26.3379 21.1754C26.1746 21.5625 25.7665 22.0238 24.7498 22.0238H22.9375C21.9818 22.0238 21.0572 21.683 20.3339 21.0641L20.3143 21.0473C20.3023 21.037 20.2905 21.0264 20.2791 21.0155L17.5826 18.4464C17.5471 18.4249 17.5015 18.4013 17.4515 18.385V20.2396C17.4543 20.4129 17.4257 20.9777 16.9774 21.4482C16.7272 21.7108 16.2622 22.0238 15.4674 22.0238C15.391 22.0238 15.3165 22.0241 15.2435 22.0244C15.1728 22.0246 15.1025 22.0248 15.0327 22.0248ZM15.6946 20.2851C15.6947 20.2872 15.6948 20.2893 15.6949 20.2916C15.6947 20.2894 15.6947 20.2872 15.6946 20.2851ZM12.3312 19.6215C12.3599 19.6319 12.3777 19.6399 12.4059 19.6537C13.6777 20.2719 14.2635 20.2702 15.2375 20.2665C15.3125 20.2662 15.3891 20.266 15.4675 20.266C15.5876 20.266 15.6601 20.2494 15.6938 20.2371V17.7785C15.6938 17.5308 15.7983 17.2947 15.9815 17.1281C16.9706 16.229 18.1645 16.6849 18.6575 17.0515C18.6862 17.0728 18.7135 17.0959 18.7393 17.1205L21.4759 19.7277C21.8819 20.0751 22.4006 20.266 22.9375 20.266H24.4389C24.3429 20.1348 24.2297 19.9978 24.1191 19.8834C24.1115 19.8756 24.1029 19.8664 24.0956 19.8583L21.2441 16.6808C21.156 16.5826 21.0863 16.4938 21.0251 16.4014C20.4523 15.5369 20.5304 14.4692 21.234 13.545C21.3493 13.3936 21.4703 13.2242 21.615 13.0121L23.5894 10.1152C23.675 9.96043 23.7346 9.8341 23.776 9.73291H21.9871C21.725 9.73291 21.5587 9.83498 21.4926 10.0364C21.4822 10.0951 21.473 10.1104 21.4477 10.1702C20.1197 13.3155 18.4842 14.7823 18.0687 15.1196C17.7977 15.423 17.4495 15.593 17.0763 15.6015C16.4302 15.616 15.9988 15.1462 15.9193 15.0519C15.7855 14.8933 15.7121 14.6926 15.7121 14.4852V9.75342C15.7121 9.74633 15.7121 9.73953 15.712 9.73297H13.0842C13.3981 10.4535 13.3712 11.1167 13.348 11.3525V15.674C13.348 15.9423 13.2255 16.1958 13.0154 16.3625C12.8053 16.5293 12.5304 16.591 12.2694 16.5299C11.051 16.2456 9.87157 14.9127 8.66378 12.4549C8.13913 11.3874 7.73319 10.3566 7.50228 9.73297H5.6731C5.47804 9.73297 5.3704 9.75816 5.31855 9.77598C5.31978 9.80281 5.32329 9.83012 5.32341 9.83041C5.32482 9.83457 5.32622 9.83873 5.32757 9.84289C6.69351 14.0301 8.53095 16.4687 9.83191 17.7771C11.1954 19.1484 12.2683 19.596 12.3312 19.6215Z" fill="black"/>
<path d="M21.6551 30H8.34492C3.74355 30 0 26.2565 0 21.6551V8.34492C0 3.7435 3.74355 0 8.34492 0H21.6551C26.2564 0 30 3.7435 30 8.34492V21.6551C30 26.2565 26.2564 30 21.6551 30ZM8.34492 1.75781C4.71281 1.75781 1.75781 4.71281 1.75781 8.34492V21.6551C1.75781 25.2872 4.71281 28.2422 8.34492 28.2422H21.6551C25.2872 28.2422 28.2422 25.2872 28.2422 21.6551V8.34492C28.2422 4.71281 25.2872 1.75781 21.6551 1.75781H8.34492Z" fill="black"/>
</g>
<defs>
<clipPath id="clip0_4157_329">
<rect width="30" height="30" fill="white"/>
</clipPath>
</defs>
</svg>
